<?xml version="1.0" encoding="UTF-8"?>
<svg id="Layer_2" data-name="Layer 2" xmlns="http://www.w3.org/2000/svg" viewBox="0 0 59.87 55.13">
  <g id="Layer_1-2" data-name="Layer 1">
    <path d="m21.28,30.71c-.84,0-1.66-.42-2.13-1.19-.72-1.18-.35-2.72.82-3.44l10.23-6.28c1.18-.72,2.72-.35,3.44.82.72,1.18.35,2.72-.82,3.44l-10.23,6.28c-.41.25-.86.37-1.31.37Z" style="fill: #231f20; stroke-width: 0px;"/>
    <path d="m21.88,37.26l-4.91,1.86c-.24-.88-.73-1.64-1.48-2.29-.74-.65-1.69-.98-2.84-.98-1.91,0-3.45.64-4.64,1.93-1.18,1.29-1.89,3.04-2.14,5.25-.27,2.24.02,4.02.86,5.34.85,1.32,2.21,1.98,4.09,1.98,1.18,0,2.22-.33,3.11-1,.89-.67,1.57-1.42,2.02-2.27l4.45,1.82c-1.09,2.03-2.5,3.58-4.23,4.64s-3.65,1.59-5.77,1.59c-2.27,0-4.23-.47-5.89-1.41-1.65-.94-2.87-2.3-3.66-4.09s-1.03-3.95-.73-6.5c.33-2.58,1.11-4.76,2.32-6.54,1.21-1.79,2.77-3.15,4.68-4.09,1.91-.94,4-1.41,6.27-1.41,2,0,3.75.52,5.25,1.57s2.57,2.58,3.2,4.61h.04Z" style="fill: #231f20; stroke-width: 0px;"/>
    <path d="m42.76,19.38v14.22h-5.45l-.04-33.07h5.49v4.23c.36-.84.85-1.62,1.49-2.34.63-.72,1.4-1.3,2.32-1.75.91-.45,1.99-.67,3.22-.67,2.01,0,3.77.47,5.29,1.42,1.51.95,2.69,2.3,3.53,4.07s1.26,3.92,1.26,6.44-.41,4.58-1.24,6.34c-.83,1.77-1.97,3.14-3.44,4.09-1.47.96-3.2,1.44-5.17,1.44-1.17,0-2.24-.19-3.2-.56s-1.79-.89-2.47-1.55c-.69-.66-1.21-1.42-1.58-2.29v-.02Zm5.67.04c1.23,0,2.28-.32,3.15-.97.87-.64,1.53-1.53,1.98-2.65s.67-2.44.67-3.94c0-1.38-.22-2.64-.67-3.78-.45-1.14-1.1-2.04-1.96-2.7s-1.9-.99-3.13-.99-2.18.33-3.04.99-1.52,1.55-1.98,2.68c-.47,1.12-.7,2.41-.7,3.85s.23,2.73.7,3.87c.46,1.14,1.12,2.02,1.98,2.66.85.63,1.85.96,2.99.99h.01Z" style="fill: #231f20; stroke-width: 0px;"/>
  </g>
</svg>